<?xml version="1.0" encoding="UTF-8"?>
<svg id="Camada_1" xmlns="http://www.w3.org/2000/svg" version="1.1" xmlns:xlink="http://www.w3.org/1999/xlink" viewBox="0 0 42 42">
  <!-- Generator: Adobe Illustrator 30.4.0, SVG Export Plug-In . SVG Version: 2.1.4 Build 226)  -->
  <defs>
    <style>
      .st0 {
        stroke-width: 1.4px;
      }

      .st0, .st1, .st2, .st3, .st4, .st5 {
        fill: none;
      }

      .st0, .st1, .st6, .st3, .st4, .st5 {
        stroke-miterlimit: 10;
      }

      .st0, .st1, .st6, .st5 {
        stroke: #007e33;
      }

      .st1 {
        stroke-width: .9px;
      }

      .st6 {
        stroke-width: 1.3px;
      }

      .st6, .st7 {
        fill: #007e33;
      }

      .st8 {
        clip-path: url(#clippath-1);
      }

      .st9 {
        fill: silver;
        fill-rule: evenodd;
      }

      .st3 {
        stroke: #000;
        stroke-width: .5px;
      }

      .st4 {
        stroke: silver;
      }

      .st4, .st5 {
        stroke-width: 1.5px;
      }

      .st10 {
        clip-path: url(#clippath-2);
      }

      .st11 {
        clip-path: url(#clippath);
      }
    </style>
    <clipPath id="clippath">
      <circle class="st2" cx="20.8" cy="20.5" r="18.7"/>
    </clipPath>
    <clipPath id="clippath-1">
      <rect class="st2" x="21" y="-.4" width="25.1" height="42.9"/>
    </clipPath>
    <clipPath id="clippath-2">
      <rect class="st2" x="-4.1" y="-.4" width="25.8" height="42.9"/>
    </clipPath>
  </defs>
  <g class="st11">
    <g class="st8">
      <g>
        <path class="st0" d="M35.8,15.5v10.2c-2.1,6-7.8,10.3-14.5,10.4,0,0,0,0,0,0-6.8,0-12.5-4.3-14.6-10.4v-10.2c2.1-6,7.9-10.4,14.6-10.4s0,0,0,0c6.7,0,12.4,4.4,14.5,10.4Z"/>
        <polygon class="st7" points="21.6 2.7 21.2 5.2 25.9 5.9 31.4 9 34.2 12.4 35.8 15.5 38.8 15.5 36.1 10.1 31.8 5.7 25.9 2.9 21.6 2.7"/>
        <polygon class="st7" points="21.6 38.8 21.2 36.3 25.9 35.6 31.4 32.4 34.2 29.1 35.8 25.9 38.8 25.9 36.1 31.4 31.8 35.7 25.8 38.6 21.6 38.8"/>
        <polyline class="st1" points="31.6 20.6 31.6 20.6 35.8 20.6"/>
        <path class="st6" d="M31.6,20.6c0,2.5-.9,4.8-2.4,6.6-1.9,2.3-4.8,3.8-8,3.8s-6.2-1.5-8.1-3.8c-1.5-1.8-2.3-4.1-2.3-6.6s.9-4.8,2.3-6.6c1.9-2.3,4.8-3.8,8.1-3.8s6.1,1.5,8,3.8c1.5,1.8,2.4,4.1,2.4,6.6Z"/>
        <path d="M32.2,20.6c0,2.7-.9,5.1-2.5,7l-7-7,7-7c1.6,1.9,2.5,4.4,2.5,7Z"/>
        <path class="st7" d="M19.7,20.6l-6.6,6.6c-1.5-1.8-2.3-4.1-2.3-6.6s.9-4.8,2.3-6.6l6.6,6.6Z"/>
        <polyline class="st3" points="6.5 20.6 10.7 20.6 10.7 20.6"/>
        <path class="st5" d="M35.8,25.8h3c-2.2,7.6-9.2,13.2-17.5,13.2,0,0,0,0,0,0-8.4,0-15.4-5.6-17.6-13.2h3v-10.2h-3C5.7,7.9,12.8,2.3,21.1,2.3s0,0,0,0c8.3,0,15.3,5.6,17.5,13.2h-3v10.2Z"/>
      </g>
    </g>
    <g class="st10">
      <path class="st9" d="M20.6,1.5c5.3,0,10.1,2.1,13.5,5.6,3.5,3.5,5.6,8.2,5.6,13.5s-2.1,10.1-5.6,13.5c-3.5,3.5-8.2,5.6-13.5,5.6s-10.1-2.1-13.5-5.6c-3.5-3.5-5.6-8.2-5.6-13.5S3.7,10.6,7.1,7.1C10.6,3.7,15.4,1.5,20.6,1.5ZM25.1,26.4l4.9,5.1,5.2-.9c1.8-2.6,2.9-5.7,3-9l-4.2-4.1-6.1,1.4-2.8,7.5h0ZM28.8,32.4l-4.9-5.1h-6.5l-4.9,5.1,2.1,4.8c1.9.7,3.9,1.1,6.1,1.1s4.2-.4,6.1-1.1l2.1-4.8h0ZM27.5,17.4l6.1-1.4,1.1-6c-.5-.6-1-1.2-1.5-1.8-1.6-1.6-3.5-2.9-5.6-3.8l-6,3.2v6l6,3.8ZM11.3,31.4l4.9-5.1-2.8-7.5-6.1-1.4-4.2,4.1c.2,3.3,1.3,6.4,3,9l5.2.9h0ZM7.7,16l6.1,1.4,6-3.8v-6l-6-3.2c-2.1.9-4,2.2-5.6,3.8-.5.5-1.1,1.1-1.5,1.8l1.1,6Z"/>
      <line class="st4" x1="21.2" y1="2.3" x2="21.2" y2="38.7"/>
    </g>
  </g>
</svg>