<?xml version="1.0" standalone="no"?>
<!DOCTYPE svg PUBLIC "-//W3C//DTD SVG 20010904//EN"
 "http://www.w3.org/TR/2001/REC-SVG-20010904/DTD/svg10.dtd">
<svg version="1.0" xmlns="http://www.w3.org/2000/svg"
 width="635.000000pt" height="965.000000pt" viewBox="0 0 635.000000 965.000000"
 preserveAspectRatio="xMidYMid meet">

<g transform="translate(0.000000,965.000000) scale(0.100000,-0.100000)"
fill="#000000" stroke="none">
<path d="M700 9490 c-38 -40 -53 -104 -34 -141 27 -53 6 -92 -26 -49 l-17 23
-5 -39 c-3 -23 1 -50 8 -66 24 -47 10 -84 -15 -40 -9 14 -10 11 -11 -18 0 -19
9 -48 20 -65 27 -41 25 -79 -8 -155 -24 -58 -30 -65 -57 -67 -17 -1 -59 -17
-95 -35 -56 -29 -68 -40 -89 -83 -13 -27 -26 -68 -29 -90 -2 -22 -9 -45 -14
-51 -10 -14 -39 -184 -33 -194 3 -4 -16 -29 -40 -56 -25 -27 -45 -55 -45 -62
0 -8 -9 -21 -20 -30 -27 -22 -50 -131 -51 -237 -1 -164 1 -186 16 -208 10 -16
14 -43 12 -82 -1 -40 2 -60 11 -62 8 -3 12 -32 12 -95 0 -87 1 -92 41 -159 38
-66 43 -70 72 -67 46 4 47 35 3 93 -20 26 -36 56 -35 68 0 18 3 17 11 -8 16
-42 107 -135 133 -135 31 0 57 22 49 43 -3 9 -10 17 -14 17 -16 0 -84 107 -98
154 -14 48 -14 50 7 67 32 26 47 15 82 -58 28 -58 34 -64 56 -60 21 4 24 2 19
-18 -3 -13 -7 -67 -7 -119 -1 -53 -5 -96 -9 -96 -14 0 -50 -89 -50 -124 0 -19
-4 -38 -10 -41 -15 -9 -12 -51 10 -124 21 -73 40 -207 40 -289 0 -49 -3 -56
-44 -96 -24 -25 -62 -56 -85 -70 -55 -35 -75 -67 -67 -110 4 -18 14 -41 24
-50 16 -13 21 -14 36 -3 10 8 19 26 19 40 0 20 5 27 19 27 15 0 17 -3 8 -19
-15 -28 -12 -61 5 -67 18 -7 92 21 118 43 12 11 17 31 17 65 0 27 9 70 19 96
23 57 34 145 19 160 -22 22 21 382 53 445 21 41 66 201 73 264 1 12 8 28 14
36 12 14 45 148 57 229 7 44 9 47 37 45 22 -1 28 -6 25 -19 -6 -21 19 -128 32
-141 6 -6 11 -28 11 -49 0 -20 4 -47 9 -60 5 -13 19 -68 31 -123 12 -55 29
-115 38 -132 9 -19 14 -55 13 -87 -1 -35 6 -73 19 -107 13 -32 19 -62 15 -80
-4 -16 0 -39 8 -56 8 -15 17 -65 21 -110 5 -69 4 -82 -8 -77 -21 8 -10 -68 21
-139 17 -42 23 -68 19 -91 -5 -26 -1 -37 16 -53 32 -29 83 -53 113 -53 23 0
25 4 25 41 0 22 4 38 9 35 5 -3 7 -14 5 -24 -3 -9 2 -26 10 -37 14 -19 17 -19
43 -5 15 9 33 27 40 40 18 36 -7 72 -102 145 -52 40 -84 73 -93 96 -15 35 -15
44 18 444 5 61 5 130 1 155 -5 25 -14 79 -21 120 -7 41 -16 80 -20 85 -5 6 -5
17 0 25 6 8 10 25 10 38 0 12 4 22 9 22 5 0 14 12 20 28 22 52 55 85 79 78 12
-4 26 -15 31 -25 21 -38 -28 -152 -88 -205 -29 -26 -27 -54 4 -62 14 -3 34 -4
45 -1 13 3 24 -1 30 -13 10 -18 12 -18 49 -2 23 10 54 37 75 65 30 39 36 55
36 96 0 62 28 201 45 221 18 22 25 210 10 300 -21 130 -74 261 -123 307 -20
19 -26 35 -29 79 -2 31 -10 68 -17 83 -9 17 -13 42 -9 68 3 24 -1 61 -10 89
-8 27 -20 68 -26 91 -8 30 -20 47 -44 61 -54 31 -148 63 -168 57 -12 -4 -20
-1 -23 7 -2 7 -11 38 -21 69 l-17 56 31 43 c36 50 38 60 11 60 -24 0 -24 -1
-5 43 8 20 11 38 6 41 -5 3 -11 -1 -15 -9 -6 -17 -36 -21 -36 -4 0 6 5 20 11
32 15 26 14 76 0 90 -8 8 -11 6 -11 -5 0 -8 -6 -21 -13 -27 -23 -18 -51 21
-43 60 5 25 1 39 -19 65 -32 42 -47 44 -32 5 8 -23 8 -33 -2 -45 -8 -9 -17
-16 -22 -16 -16 0 -40 34 -36 51 4 13 -3 20 -24 24 -31 7 -46 38 -36 75 7 29
-11 25 -43 -10z m-154 -1005 c29 -70 29 -70 28 -285 -1 -121 -6 -241 -13 -275
-6 -33 -15 -102 -19 -154 l-7 -94 -43 61 c-27 39 -46 80 -52 109 -5 27 -13 64
-18 83 -5 22 -5 46 1 65 6 17 13 95 17 175 6 118 13 168 40 267 19 68 35 122
36 120 1 -1 15 -33 30 -72z m553 6 c6 -27 20 -73 32 -103 14 -36 22 -80 24
-138 4 -127 16 -253 25 -270 4 -8 6 -45 3 -82 -5 -63 -9 -71 -48 -113 l-43
-44 -10 42 c-6 23 -16 68 -22 99 -6 32 -16 60 -21 63 -5 4 -9 44 -9 90 0 48
-5 87 -11 90 -5 4 -8 19 -5 33 3 15 8 64 11 109 5 72 11 109 41 246 9 41 21
33 33 -22z m211 -1034 c0 -2 -12 -14 -27 -28 l-28 -24 24 28 c23 25 31 32 31
24z"/>
<path d="M3340 9227 c-54 -27 -79 -83 -114 -254 -36 -175 -33 -168 -181 -408
-83 -134 -162 -242 -229 -314 -57 -59 -82 -73 -109 -59 -10 5 -21 8 -23 5 -3
-2 -12 -37 -21 -78 -12 -57 -16 -137 -17 -350 l-1 -277 -39 -56 c-33 -48 -37
-61 -32 -93 3 -21 10 -67 15 -103 9 -65 28 -120 42 -120 4 0 9 46 11 103 2 85
7 110 28 152 35 68 54 72 43 9 -15 -89 -10 -151 13 -175 l21 -21 0 84 c-1 86
21 157 45 142 5 -4 21 -31 34 -60 13 -30 28 -54 34 -54 15 0 12 75 -4 115 -8
18 -26 41 -40 50 -15 10 -31 36 -41 65 -9 27 -23 54 -31 60 -35 30 -4 199 74
412 45 122 85 176 205 271 l72 58 7 -28 c8 -35 32 -294 54 -593 l17 -226 -22
-74 c-24 -77 -68 -149 -108 -175 -45 -30 -83 -144 -83 -253 0 -37 7 -54 45
-104 51 -68 56 -100 21 -137 -22 -25 -46 -97 -46 -142 0 -23 69 -99 90 -99 8
0 10 8 6 23 -22 74 -20 87 16 125 67 69 81 123 57 217 -23 93 5 135 215 319
43 38 91 87 107 109 50 69 87 182 104 323 9 71 22 170 30 219 21 130 45 351
45 418 0 66 7 69 59 30 83 -63 145 -130 168 -183 14 -30 40 -85 58 -121 71
-141 80 -241 34 -367 -16 -47 -32 -71 -58 -90 -20 -15 -39 -31 -43 -37 -11
-15 -9 -84 3 -106 14 -28 26 -16 33 35 9 56 29 76 55 52 24 -22 38 -74 47
-168 5 -54 11 -78 20 -78 26 0 30 86 9 188 -6 24 -4 32 7 32 36 0 56 -109 39
-215 -6 -40 -7 -73 -2 -78 22 -22 70 101 78 199 4 40 -2 67 -27 130 -30 76
-31 87 -40 291 -10 237 -22 343 -45 421 -16 52 -16 53 -50 46 -29 -5 -38 -1
-72 33 -21 21 -87 112 -148 202 -60 90 -127 189 -148 220 -63 92 -86 144 -102
238 -40 219 -44 231 -84 273 -40 42 -60 48 -101 27z"/>
<path d="M5713 9190 c-12 -30 -42 -102 -66 -160 -24 -58 -61 -147 -82 -197
-21 -51 -41 -93 -44 -93 -17 1 -29 22 -55 100 -61 178 -65 187 -94 199 -16 7
-36 25 -46 41 -22 38 -32 38 -56 -3 -11 -19 -31 -39 -44 -45 -25 -11 -58 -82
-98 -212 -15 -48 -28 -75 -37 -75 -9 0 -37 55 -76 150 -97 234 -144 329 -158
315 -10 -10 13 -184 38 -294 41 -177 39 -167 22 -161 -17 7 -123 -23 -252 -72
-92 -35 -112 -51 -162 -127 -27 -41 -27 -51 -5 -260 l10 -89 -64 -97 -64 -98
0 -123 c0 -127 10 -277 31 -452 11 -95 12 -99 45 -120 24 -16 39 -38 54 -80
17 -46 33 -67 81 -107 63 -53 86 -61 96 -34 6 16 1 26 -36 83 -15 23 -14 24 5
13 11 -6 26 -18 34 -26 18 -23 49 -20 59 6 6 17 2 31 -15 53 -12 17 -34 55
-48 85 -22 47 -24 57 -11 69 12 12 17 12 39 -3 14 -9 35 -30 48 -46 15 -20 30
-30 49 -30 42 0 50 18 38 91 -9 55 -16 70 -51 106 -23 24 -43 51 -44 60 -1 10
-5 59 -8 110 -6 86 -5 96 19 142 29 58 32 115 11 203 l-14 58 40 77 c22 43 44
77 48 76 4 -1 41 -28 83 -59 l77 -57 0 -87 c0 -82 -2 -89 -34 -134 -30 -42
-38 -68 -66 -217 l-33 -168 21 -57 c32 -81 29 -100 -27 -176 -82 -113 -83
-118 -71 -270 5 -73 12 -153 16 -178 5 -43 3 -48 -47 -105 -28 -33 -64 -65
-80 -72 -20 -8 -31 -23 -39 -53 -6 -23 -10 -49 -8 -58 5 -27 57 -45 138 -49
64 -3 81 -1 115 19 34 20 41 30 45 63 3 27 10 40 20 40 8 0 26 6 38 13 22 13
23 18 17 75 -4 34 -7 103 -7 154 l0 92 46 55 c57 66 66 95 66 212 0 86 2 94
27 123 15 17 42 76 64 138 60 176 52 165 105 161 l47 -3 28 -75 c16 -41 37
-102 46 -135 11 -40 27 -72 51 -97 26 -28 33 -42 29 -60 -4 -13 -4 -60 0 -106
6 -80 8 -86 54 -145 45 -59 48 -66 57 -152 9 -81 8 -91 -9 -113 -12 -16 -19
-41 -19 -68 0 -37 5 -46 32 -65 22 -16 33 -19 36 -11 7 21 22 2 22 -28 0 -23
9 -33 48 -56 40 -24 57 -29 113 -28 36 1 82 7 102 13 33 11 36 15 31 39 -10
42 -46 122 -55 124 -5 0 -15 1 -21 2 -7 1 -33 26 -58 56 l-46 55 7 95 c4 52 8
139 8 193 1 106 1 105 -71 203 -43 57 -44 62 -24 158 12 54 13 94 6 190 -15
192 -17 198 -65 262 l-44 59 0 90 1 90 74 63 74 63 19 -43 c11 -24 30 -60 44
-82 l24 -38 -23 -62 c-12 -34 -25 -82 -29 -106 -5 -39 -2 -51 23 -90 27 -41
30 -55 35 -155 l6 -109 -35 -42 c-30 -37 -35 -52 -40 -116 -6 -73 -6 -74 20
-86 41 -18 49 -15 71 31 21 44 46 57 70 37 12 -10 11 -19 -6 -58 -11 -26 -34
-64 -50 -85 -50 -63 -21 -101 43 -55 l33 23 -28 -37 c-24 -30 -27 -40 -17 -57
6 -12 18 -21 26 -21 26 0 135 112 164 170 17 33 40 62 58 71 28 16 31 22 37
91 4 41 5 193 3 339 l-3 264 -45 70 c-24 39 -55 84 -68 102 -23 31 -24 39 -23
199 l0 167 -49 51 c-43 45 -61 55 -152 88 -57 20 -123 41 -147 48 -43 11 -43
12 -37 48 22 133 47 351 44 395 l-3 52 -22 -55z"/>
<path d="M1882 7790 c-19 -12 -40 -37 -49 -57 -22 -54 -4 -103 66 -177 67 -72
121 -140 121 -154 0 -5 -22 -19 -48 -30 -63 -27 -69 -35 -81 -112 -6 -36 -25
-92 -42 -125 -44 -84 -48 -101 -59 -264 -10 -142 -10 -145 15 -196 26 -55 55
-89 55 -64 0 8 -7 44 -16 81 -19 76 -12 155 13 165 22 8 33 -15 33 -69 0 -47
12 -63 24 -32 11 29 6 104 -8 127 -21 33 -6 233 24 311 l23 59 16 -34 c12 -27
15 -67 14 -197 0 -90 -6 -192 -13 -227 -9 -48 -9 -88 -1 -168 6 -57 9 -110 6
-118 -3 -8 -20 -20 -37 -27 -17 -6 -64 -30 -104 -53 -83 -48 -82 -59 5 -59 57
0 47 -7 196 122 6 5 1 11 -12 14 -18 5 -21 15 -25 72 -3 39 1 89 9 120 7 29
13 69 13 88 0 20 9 66 19 102 11 37 22 79 25 95 4 15 10 27 14 27 7 0 58 -198
54 -212 -1 -4 4 -40 12 -80 8 -40 17 -103 21 -140 7 -67 7 -68 -17 -68 -14 0
-28 -3 -31 -6 -4 -4 24 -36 61 -71 l67 -63 70 2 70 3 -55 36 c-30 20 -75 47
-99 60 l-44 23 7 143 c4 94 2 151 -4 164 -6 10 -16 72 -21 137 -11 124 -1 241
26 292 13 25 14 25 40 -32 48 -104 58 -231 23 -304 -18 -38 -20 -53 -12 -92
12 -61 36 -70 28 -10 -4 31 -1 49 10 63 14 17 17 18 26 5 29 -43 33 -94 12
-173 -18 -71 -19 -78 -4 -75 10 2 27 27 39 58 19 48 22 68 17 150 -10 189 -23
261 -55 311 -19 30 -34 71 -40 110 -13 82 -30 107 -89 132 l-48 20 51 61 c28
34 70 81 94 106 47 51 63 85 63 137 0 80 -67 125 -151 103 -53 -14 -166 -15
-202 -1 -42 16 -78 13 -115 -9z"/>
<path d="M3170 6286 c0 -2 28 -24 63 -49 174 -125 379 -396 423 -562 20 -75
18 -159 -6 -206 -12 -22 -27 -42 -35 -46 -24 -9 -8 -20 37 -27 72 -12 182 -71
227 -122 43 -49 51 -78 25 -88 -33 -13 -139 -6 -174 12 -31 15 -35 21 -32 50
l2 33 -41 -23 c-45 -25 -119 -85 -119 -97 0 -4 39 -7 88 -8 51 -1 101 -7 121
-16 l33 -14 -28 -6 c-16 -3 -41 -3 -56 0 -24 4 -28 2 -28 -16 0 -38 26 -86 62
-113 l35 -27 23 21 c17 16 19 22 9 29 -11 6 -11 11 -2 20 9 9 16 9 28 -1 13
-10 15 -9 15 7 0 18 9 21 92 26 120 8 131 0 78 -60 -21 -24 -46 -66 -55 -92
-9 -27 -29 -69 -45 -94 -28 -44 -30 -46 -60 -37 -18 5 -38 15 -46 21 -40 33
-152 -152 -180 -296 -21 -111 -31 -285 -16 -285 8 0 12 19 12 49 0 135 61 310
135 384 20 21 39 36 41 34 2 -2 -2 -19 -8 -38 -21 -55 -17 -327 5 -424 20 -86
44 -130 33 -60 -25 156 -16 304 25 424 30 85 60 117 121 131 29 7 66 10 82 8
28 -3 30 -6 42 -73 24 -139 124 -353 124 -265 0 11 13 52 29 92 16 40 37 110
47 156 l19 82 50 -1 c85 -2 97 -9 133 -79 18 -36 37 -90 42 -120 16 -85 23
-269 12 -332 -9 -57 1 -84 12 -30 27 140 38 355 23 462 l-7 55 20 -25 c11 -14
34 -52 50 -85 28 -56 35 -89 68 -305 l8 -55 9 70 c10 91 -9 258 -40 349 -13
38 -40 93 -60 123 -40 60 -30 57 -121 36 -18 -4 -24 3 -39 44 -27 74 -75 173
-85 173 -5 0 -14 10 -21 21 -11 22 0 38 26 39 16 0 68 -89 69 -118 1 -21 20
-41 85 -94 122 -97 158 -135 143 -150 -18 -18 14 -48 52 -48 28 1 29 2 14 14
-27 20 -22 36 12 36 20 0 30 -5 30 -15 0 -8 5 -15 10 -15 6 0 10 18 10 40 0
33 -4 40 -19 40 -10 0 -27 12 -36 27 -17 25 -18 25 -31 8 -17 -23 -28 -15
-105 87 -32 42 -68 79 -78 83 -17 5 -65 103 -56 113 2 2 11 -2 22 -8 15 -10
27 -6 70 23 61 41 156 62 244 54 32 -3 59 -2 59 2 0 19 -107 103 -149 116 -20
6 -23 5 -17 -10 11 -29 -3 -53 -36 -64 -33 -12 -146 -15 -172 -5 -45 17 17
102 111 151 62 33 105 47 166 58 l38 6 -30 34 c-36 42 -46 85 -37 173 11 117
116 294 277 466 58 63 198 177 231 189 7 2 10 7 7 11 -9 10 -135 -38 -219 -84
-195 -106 -413 -316 -574 -554 -25 -38 -44 -71 -42 -74 3 -2 29 16 57 42 34
30 60 46 73 44 27 -4 50 -52 51 -107 0 -40 -4 -47 -50 -88 -64 -56 -125 -86
-159 -77 -28 7 -32 23 -15 56 19 35 3 31 -41 -11 l-43 -40 -29 24 c-38 32
-129 35 -168 5 l-25 -19 -44 42 c-35 33 -43 38 -38 20 4 -16 -1 -23 -19 -27
-15 -4 -24 -14 -24 -26 0 -19 -2 -20 -29 -6 -16 9 -54 38 -85 67 -50 45 -56
55 -56 90 0 50 28 109 52 109 11 0 44 -23 74 -51 30 -29 54 -47 54 -41 0 6
-36 64 -79 129 -141 210 -298 371 -476 487 -95 62 -255 132 -255 112z m893
-1410 c9 -7 17 -16 17 -19 0 -9 -70 -52 -98 -61 -22 -7 -23 -6 -12 16 14 25
60 78 69 78 3 0 14 -7 24 -14z m334 -35 c32 -48 29 -56 -14 -30 -52 31 -57 35
-49 54 9 25 38 14 63 -24z"/>
<path d="M974 6109 c-45 -13 -74 -50 -82 -105 -9 -59 -14 -62 -179 -105 -249
-64 -308 -86 -344 -126 -41 -48 -66 -104 -75 -173 -7 -54 -66 -195 -99 -235
-16 -20 -16 -20 -36 8 -12 15 -25 27 -30 27 -5 0 -9 -31 -9 -68 0 -43 -5 -75
-14 -87 -14 -19 -15 -19 -33 -2 -11 9 -23 17 -26 17 -13 0 -7 -40 14 -98 34
-93 34 -91 10 -85 -28 7 -27 -10 3 -61 19 -32 93 -286 123 -424 3 -12 -5 -63
-17 -113 -25 -103 -24 -105 52 -177 66 -64 100 -51 77 29 -9 30 -9 48 0 79 6
22 16 40 21 40 6 0 10 -18 10 -40 0 -37 2 -40 28 -40 l29 0 -3 76 c-2 68 -6
80 -33 115 -38 47 -51 107 -51 238 0 84 3 101 25 136 58 94 85 160 85 206 0
32 5 49 15 53 12 4 15 -4 17 -42 3 -78 -2 -104 -27 -161 -22 -46 -27 -52 -40
-41 -29 24 -38 -2 -22 -63 13 -55 13 -56 -7 -54 -27 3 -25 -9 12 -103 29 -72
65 -210 78 -295 3 -22 -2 -83 -10 -135 -17 -105 -18 -101 47 -173 24 -26 39
-35 51 -31 15 6 17 16 11 79 -7 73 -1 115 16 115 5 0 9 -13 9 -28 0 -16 9 -37
20 -47 24 -22 56 -13 45 13 -4 9 -10 44 -13 77 -2 38 -11 67 -22 80 -32 36
-42 66 -47 141 -5 65 -2 85 27 170 23 68 31 107 27 134 -4 32 -1 43 19 61 13
12 34 44 46 71 12 26 25 48 30 48 15 0 8 -122 -14 -265 -15 -98 -22 -188 -22
-300 -1 -147 1 -164 22 -211 l24 -52 -31 -90 c-17 -49 -31 -102 -31 -117 0
-15 23 -95 50 -176 28 -82 50 -166 50 -189 0 -48 -34 -91 -117 -146 -56 -37
-66 -57 -61 -120 3 -39 3 -39 49 -42 38 -2 52 2 77 23 37 31 60 32 64 3 3 -21
9 -23 80 -26 93 -3 106 9 89 86 -8 39 -7 49 10 70 23 29 25 96 4 132 -19 33
-19 186 0 265 18 73 19 131 3 205 -10 50 -8 79 16 231 36 234 38 244 56 244
11 0 18 -22 27 -90 7 -49 22 -147 34 -216 19 -118 20 -130 5 -180 -21 -71 -20
-138 3 -200 11 -28 23 -86 27 -130 6 -75 5 -80 -20 -114 -24 -31 -26 -41 -20
-81 3 -25 17 -58 31 -75 22 -26 23 -31 12 -63 -10 -27 -10 -41 -1 -61 11 -24
15 -25 92 -25 l81 0 6 30 c3 17 9 32 13 35 4 2 22 -11 40 -30 28 -29 41 -35
77 -35 l43 0 0 53 c0 61 -11 77 -92 136 -62 44 -88 83 -88 128 0 15 16 93 36
173 42 170 42 230 1 329 -26 64 -26 64 -7 100 39 78 42 108 21 293 -11 95 -26
220 -32 278 -8 65 -9 136 -4 185 l7 80 44 -87 c24 -47 48 -89 54 -93 6 -3 7
-29 4 -63 -5 -45 0 -77 21 -149 34 -120 29 -197 -19 -251 -23 -27 -32 -48 -38
-96 -4 -33 -8 -70 -10 -81 -2 -15 3 -20 22 -20 20 0 27 7 37 35 17 53 27 15
19 -71 -6 -56 -4 -70 8 -75 22 -8 49 10 81 56 29 41 29 42 17 111 -11 62 -10
82 8 167 22 110 79 286 105 326 20 31 14 59 -11 49 -14 -5 -16 -3 -11 11 12
30 20 126 12 126 -5 0 -17 -7 -26 -16 -17 -16 -19 -15 -30 12 -30 76 -36 113
-31 182 4 59 7 71 17 60 7 -7 18 -41 23 -75 7 -41 24 -84 50 -128 48 -78 57
-133 47 -284 -7 -102 -8 -107 -40 -141 -29 -30 -34 -44 -38 -100 -3 -36 -8
-75 -12 -88 -7 -21 -5 -23 21 -20 24 2 30 10 40 43 16 56 28 23 22 -59 -4 -44
-1 -68 8 -81 14 -19 15 -19 50 0 19 10 47 38 60 61 24 41 25 45 14 126 -7 46
-9 106 -5 133 14 110 70 296 121 399 35 72 36 93 3 76 -16 -9 -19 -7 -19 9 0
11 9 41 20 67 27 61 37 134 20 134 -6 0 -20 -10 -30 -22 -26 -32 -34 -17 -32
56 2 34 -1 74 -6 87 -9 24 -10 24 -32 -14 l-23 -38 -26 25 c-33 32 -54 102
-55 186 -1 83 -40 174 -83 192 -15 7 -40 22 -55 34 -33 27 -111 57 -328 126
l-165 53 -6 53 c-11 88 -75 134 -155 111z"/>
<path d="M5627 5873 c-4 -3 -7 -28 -7 -54 0 -44 -3 -50 -30 -64 -16 -8 -35
-15 -43 -15 -18 0 -91 -70 -117 -112 -25 -42 -25 -72 0 -108 l20 -28 -103 -74
c-56 -41 -107 -85 -114 -99 -15 -30 -39 -187 -51 -327 -5 -56 -12 -106 -16
-110 -4 -3 -16 4 -26 18 l-20 25 -1 -110 c-3 -167 -1 -181 43 -305 33 -97 40
-132 45 -221 5 -91 3 -116 -17 -182 -24 -81 -23 -103 12 -157 17 -28 23 -31
26 -17 3 15 6 16 19 5 14 -11 15 -10 8 11 -5 17 -4 22 5 16 9 -6 10 -1 4 16
-15 42 -9 94 15 127 43 60 61 37 61 -81 0 -37 7 -109 15 -161 8 -51 16 -138
18 -192 3 -119 -15 -163 -81 -207 -44 -30 -86 -86 -98 -131 -7 -30 10 -35 42
-11 19 15 80 20 108 9 9 -3 16 -14 16 -24 0 -35 21 -32 60 9 49 51 54 80 41
217 -15 149 7 392 46 514 l27 85 12 -80 c11 -80 56 -306 75 -378 6 -21 14 -35
19 -32 4 3 14 38 20 78 7 39 23 126 36 192 12 66 25 142 29 170 8 62 25 145
31 145 2 0 1 -26 -2 -57 -5 -44 -1 -76 15 -128 35 -118 53 -317 45 -506 l-7
-167 43 -46 c46 -50 60 -56 60 -27 0 23 16 36 53 45 22 5 40 0 73 -19 43 -25
44 -25 44 -5 0 42 -29 88 -93 143 -36 32 -70 72 -76 89 -13 38 -14 160 -1 248
13 92 17 132 25 238 7 93 12 106 37 97 37 -15 60 -104 37 -147 -8 -15 -8 -22
1 -28 7 -4 9 -13 5 -20 -6 -9 -4 -11 5 -5 7 4 16 2 20 -5 13 -20 60 59 60 100
0 19 -10 60 -21 90 -26 67 -28 188 -4 270 74 258 82 299 77 418 -4 95 -12 123
-26 87 -8 -22 -23 -18 -30 8 -4 12 -11 101 -17 197 -5 96 -14 189 -19 206 -12
36 -51 74 -142 138 -38 26 -68 51 -68 54 0 4 9 18 20 32 33 42 26 74 -29 131
-28 29 -52 58 -55 65 -3 8 -11 14 -18 14 -7 0 -32 8 -55 17 -52 22 -63 49 -22
57 38 7 37 31 -1 51 -31 16 -53 19 -63 8z m-200 -806 c40 -80 48 -137 29 -218
-35 -149 -47 -243 -52 -389 -4 -133 -8 -161 -27 -197 -12 -24 -24 -43 -27 -42
-14 1 -53 64 -61 97 -14 62 -10 163 11 252 17 69 20 103 15 190 -5 87 -3 118
13 180 35 132 53 190 60 190 4 0 21 -28 39 -63z m509 -85 c21 -81 24 -111 19
-177 -4 -56 -1 -102 10 -155 22 -104 29 -203 20 -294 -6 -68 -10 -80 -38 -105
l-30 -29 -22 41 c-19 36 -23 64 -28 192 -4 83 -18 221 -32 308 -35 224 -34
241 21 328 l27 43 14 -28 c8 -15 26 -71 39 -124z m-409 -814 c-3 -7 -5 -2 -5
12 0 14 2 19 5 13 2 -7 2 -19 0 -25z"/>
<path d="M2664 5718 c-31 -15 -52 -71 -64 -171 -14 -112 -16 -119 -96 -229
-158 -219 -247 -369 -316 -533 -68 -162 -139 -408 -177 -615 -73 -397 -83
-559 -42 -670 43 -118 109 -191 146 -160 12 10 20 7 44 -19 33 -35 87 -43 98
-14 6 15 -3 81 -23 180 -10 48 19 55 59 15 29 -30 31 -34 31 -119 l1 -88 126
-3 c112 -2 128 -1 151 17 l25 20 1 219 c1 178 5 238 21 318 27 130 67 258 86
274 23 19 59 -70 90 -225 22 -108 28 -166 32 -345 6 -235 7 -239 68 -264 17
-7 83 -16 148 -20 l117 -7 0 58 c0 32 -7 87 -15 122 l-16 64 32 33 c31 32 32
32 55 16 28 -20 29 -33 9 -109 -18 -70 -19 -120 -2 -126 20 -7 82 32 101 64
17 29 36 31 36 4 0 -18 28 -27 50 -15 32 17 81 131 92 216 26 195 -44 612
-155 914 -119 325 -187 457 -341 660 -19 25 -35 49 -35 53 -1 4 -11 19 -24 33
-50 54 -86 129 -102 214 -33 182 -37 193 -65 222 -24 23 -37 28 -77 27 -26 0
-58 -5 -69 -11z m417 -1035 c17 -59 35 -150 40 -202 5 -52 13 -120 18 -151 6
-30 15 -98 21 -150 6 -52 20 -127 30 -166 18 -65 18 -75 4 -135 -8 -35 -14
-73 -12 -84 3 -22 -57 -125 -72 -125 -10 0 -15 36 -30 196 -6 61 -26 187 -45
280 -47 224 -58 444 -30 604 19 103 19 104 32 72 7 -18 27 -80 44 -139z m-609
-33 c11 -82 4 -303 -12 -385 -28 -133 -80 -509 -80 -572 0 -24 -4 -43 -9 -43
-20 0 -59 80 -66 136 -4 32 -14 74 -21 93 -12 29 -12 41 1 90 8 31 20 117 25
191 24 320 61 558 102 659 10 25 12 23 30 -34 10 -33 24 -94 30 -135z"/>
<path d="M3230 3103 c-74 -102 -98 -219 -65 -312 17 -49 11 -55 -72 -66 -49
-6 -56 -11 -100 -67 -88 -112 -101 -124 -113 -112 -16 16 -30 84 -23 114 4 19
3 22 -6 14 -19 -18 -25 -200 -8 -276 l14 -67 -31 -6 c-118 -24 -277 -70 -311
-90 -78 -46 -125 -117 -125 -190 0 -57 39 -86 305 -225 66 -34 137 -76 158
-92 46 -36 48 -20 6 47 -44 70 -130 151 -233 219 -50 33 -84 62 -79 67 16 16
120 30 232 32 155 3 155 2 106 -141 -26 -76 -35 -119 -31 -137 8 -31 77 -108
118 -133 35 -20 33 -32 -19 -144 -39 -83 -53 -101 -105 -126 -39 -20 -57 -61
-40 -94 6 -13 14 -38 17 -55 8 -40 48 -73 87 -73 45 0 90 50 87 95 -3 24 3 41
18 57 16 19 21 37 22 94 1 78 21 189 45 246 9 21 16 42 16 48 0 14 -37 13 -46
-1 -12 -20 -26 18 -14 40 14 28 13 62 -4 80 -13 14 -9 23 31 71 127 154 163
188 205 195 46 8 48 7 180 -138 77 -83 80 -89 68 -112 -11 -21 -11 -31 5 -64
19 -42 14 -84 -7 -63 -13 13 -58 16 -58 4 0 -4 6 -17 14 -28 29 -41 57 -147
63 -240 4 -59 11 -98 19 -105 9 -7 12 -24 8 -53 -5 -36 -2 -47 19 -71 20 -24
33 -30 67 -30 34 0 47 6 66 28 13 16 24 39 24 53 0 14 5 34 11 46 17 31 3 63
-50 113 -29 28 -67 80 -94 132 l-46 86 27 21 c46 35 89 85 107 127 18 38 18
41 -3 87 -11 26 -37 87 -56 137 -34 87 -35 90 -17 110 40 44 52 77 71 201 24
155 27 311 6 340 -13 17 -15 14 -15 -38 0 -63 -7 -98 -21 -98 -8 0 -51 47
-122 133 -16 19 -43 33 -88 45 -60 16 -65 20 -62 42 2 14 4 61 5 105 1 67 -3
89 -25 137 -29 63 -77 128 -94 128 -6 0 -26 -21 -44 -47z m378 -642 c0 -14 6
-49 13 -77 15 -61 8 -89 -32 -133 l-31 -33 -16 23 c-9 13 -38 47 -64 75 l-49
52 20 33 c11 19 22 60 26 91 l7 57 63 -31 c52 -26 62 -35 63 -57z m-533 -3 c7
-40 11 -75 9 -76 -6 -8 -147 -41 -153 -37 -4 2 -3 30 2 63 10 56 12 60 65 95
31 20 57 35 60 33 2 -3 10 -38 17 -78z"/>
<path d="M1810 1963 c-50 -7 -115 -26 -139 -41 -46 -28 -86 -31 -158 -11 -82
23 -180 24 -253 4 -104 -29 -122 -29 -182 -1 -101 48 -220 51 -318 8 -59 -26
-140 -91 -174 -141 -39 -56 -76 -164 -82 -234 -2 -33 -12 -78 -23 -101 -21
-47 -124 -152 -191 -194 -64 -41 -114 -101 -139 -166 -23 -63 -26 -99 -11
-177 15 -78 42 -126 115 -201 53 -55 66 -75 71 -110 9 -59 58 -152 91 -175 32
-23 161 -59 171 -48 4 3 -1 11 -11 16 -25 14 -21 29 8 29 31 0 31 7 0 36 -36
33 -31 56 23 108 69 67 93 62 94 -20 1 -24 5 -44 10 -44 5 0 22 21 39 47 28
44 30 52 23 103 -4 30 -8 125 -8 210 0 140 2 160 22 205 51 112 49 112 94 -16
48 -140 47 -171 -10 -266 -73 -124 -74 -194 -7 -344 20 -43 45 -112 56 -154
18 -71 18 -77 2 -101 l-17 -26 42 7 c42 7 42 7 42 -24 0 -39 9 -39 45 -1 35
37 39 37 54 3 l12 -27 22 26 c12 15 32 29 44 33 16 4 26 18 33 48 18 73 53
139 88 165 47 36 128 42 175 14 52 -33 68 -55 97 -139 24 -68 31 -78 54 -81
14 -2 26 -7 26 -11 0 -4 7 -16 15 -27 14 -19 15 -19 34 5 l19 25 32 -27 c41
-35 50 -34 50 7 0 34 0 34 30 23 34 -13 49 -4 30 18 -21 25 5 153 49 240 17
33 36 85 42 115 20 96 9 136 -83 303 -24 43 -22 79 7 162 13 39 25 84 25 100
0 17 5 37 10 45 9 13 13 11 30 -10 44 -55 62 -128 67 -271 4 -90 2 -153 -6
-187 -11 -45 -11 -55 9 -98 32 -74 78 -116 64 -59 -10 40 4 95 24 95 22 0 122
-92 122 -113 0 -8 -12 -29 -26 -46 l-26 -31 26 0 c30 0 32 -7 9 -32 -15 -17
-15 -18 10 -18 37 0 115 28 150 53 36 27 75 105 83 168 5 40 16 57 70 115 93
100 118 156 119 269 0 81 -3 95 -30 144 -31 57 -87 111 -145 141 -57 29 -183
168 -198 218 -7 23 -10 46 -7 51 9 15 -44 184 -71 224 -80 122 -242 206 -364
190z"/>
<path d="M4980 1885 c0 -18 -66 -21 -72 -4 -5 16 -48 1 -48 -16 0 -15 -27 -28
-41 -19 -5 3 -23 2 -41 -1 -20 -5 -26 -10 -18 -15 19 -12 1 -31 -24 -24 -15 3
-28 -2 -40 -15 -13 -14 -15 -21 -6 -21 10 0 10 -3 0 -15 -7 -8 -18 -15 -26
-15 -7 0 -25 -5 -39 -12 -20 -9 -25 -17 -20 -35 4 -18 -1 -26 -25 -38 -17 -9
-30 -23 -30 -35 0 -27 -27 -50 -61 -50 -59 0 -156 -63 -193 -126 -10 -16 -30
-37 -46 -46 -15 -9 -45 -42 -65 -74 -35 -56 -130 -155 -167 -175 -14 -8 -27
-1 -63 32 l-45 42 0 -52 c0 -32 -4 -50 -10 -46 -6 4 -10 -28 -10 -90 0 -62 -4
-94 -10 -90 -15 9 -12 -37 3 -60 26 -38 38 -87 25 -102 -9 -11 -5 -20 15 -41
15 -16 27 -32 27 -36 0 -4 14 -27 30 -51 32 -47 38 -64 16 -46 -10 9 -15 8
-19 -3 -4 -10 15 -34 56 -70 34 -30 73 -75 86 -99 l23 -43 -30 -61 c-28 -55
-34 -61 -69 -66 -21 -4 -48 -7 -60 -7 -30 0 -133 -79 -156 -119 -16 -27 -16
-32 -3 -37 9 -3 27 3 42 15 21 16 30 18 46 10 11 -6 31 -9 44 -6 29 5 39 -7
36 -45 -2 -24 1 -28 23 -28 14 0 28 6 31 14 3 8 20 17 38 20 18 4 43 17 56 31
39 41 52 33 48 -27 -3 -48 -1 -53 19 -56 14 -2 27 5 39 22 12 19 25 26 49 26
39 0 82 36 90 77 11 49 14 53 30 47 8 -4 15 -18 15 -34 0 -15 7 -33 15 -40 11
-9 13 -16 5 -24 -12 -12 -13 -46 -1 -46 10 0 36 14 92 48 54 33 67 98 24 126
l-25 16 81 78 c45 42 97 88 115 101 43 30 43 45 2 61 -39 15 -98 68 -98 87 0
9 17 13 58 13 31 1 166 3 300 5 156 3 242 1 242 -5 0 -17 -68 -86 -104 -105
-20 -11 -36 -22 -36 -26 0 -3 28 -23 62 -45 34 -21 85 -61 113 -88 44 -44 51
-57 52 -91 0 -43 32 -115 66 -152 29 -32 41 -29 34 10 -4 26 0 38 19 56 13 13
24 29 24 37 0 23 19 16 32 -11 15 -33 81 -75 117 -75 22 0 36 -8 51 -30 24
-33 67 -43 55 -12 -3 9 -9 39 -12 67 l-6 50 32 -28 c21 -17 44 -27 65 -27 25
0 36 -7 49 -30 11 -18 26 -30 39 -30 21 0 21 10 2 76 -5 20 -1 22 48 26 34 3
61 0 75 -9 63 -38 56 -2 -18 85 -50 58 -67 72 -97 77 -78 13 -82 15 -112 68
-42 73 -39 89 25 152 30 29 55 60 55 70 0 15 -1 15 -16 1 -22 -23 -24 -20 -12
15 6 17 32 52 59 79 27 27 49 57 49 66 0 15 -2 15 -21 -2 -22 -19 -22 -19 -14
6 4 14 18 45 30 70 15 29 25 71 29 115 3 39 8 99 12 134 5 48 4 62 -4 57 -8
-5 -12 4 -12 30 l0 38 -28 -27 -28 -27 -62 40 c-34 22 -62 46 -62 54 0 7 -11
21 -25 30 -14 9 -25 25 -25 34 0 10 -13 28 -30 40 -16 13 -30 29 -30 36 0 8
-13 26 -30 39 -23 20 -30 34 -30 62 0 29 -8 45 -34 71 -33 33 -36 34 -122 35
-118 2 -148 9 -152 36 -2 11 -12 23 -23 26 -11 3 -23 14 -25 24 -3 10 -19 27
-37 37 -32 19 -32 19 -8 25 22 6 22 7 7 20 -9 8 -34 17 -54 21 -28 4 -36 10
-34 23 2 13 -4 17 -28 17 -38 0 -90 26 -90 44 0 8 -7 17 -16 20 -22 9 -24 8
-24 -9z m-460 -753 c19 -42 54 -97 77 -122 41 -45 63 -86 63 -117 0 -12 -9
-14 -51 -8 -34 5 -49 4 -45 -3 3 -5 -5 -13 -19 -16 -14 -4 -25 -11 -25 -16 0
-6 -15 -24 -34 -40 -44 -39 -116 -150 -116 -179 0 -65 51 -105 178 -137 40
-10 71 -23 69 -29 -2 -5 -28 -30 -57 -54 -49 -40 -56 -43 -94 -37 -44 8 -56
19 -56 54 0 13 -18 60 -39 105 -50 103 -67 170 -81 321 -6 65 -16 130 -21 143
-5 13 -9 28 -9 33 0 13 204 179 220 179 3 0 21 -34 40 -77z m913 62 c18 -9 50
-29 72 -44 22 -15 59 -39 82 -55 l43 -28 -20 -31 c-22 -37 -28 -72 -34 -213
-6 -109 -34 -215 -81 -299 -14 -25 -25 -60 -25 -80 0 -39 -14 -48 -70 -48 -24
0 -50 11 -82 34 -27 19 -48 36 -48 39 0 3 48 26 106 50 110 46 117 53 131 123
6 32 -58 132 -126 195 -37 34 -53 43 -83 43 -20 0 -49 5 -64 10 -24 9 -26 14
-21 46 4 20 22 53 45 79 21 24 56 78 77 120 21 41 45 75 52 75 8 0 28 -7 46
-16z"/>
</g>
</svg>
